ffmpeg started on 2026-01-18 at 19:55:36
Report written to "C:\Dev\OSPanel\domains\Java-AT\modules\ffmpeg\FFMetrics\reports\ssim_report-6.txt"
Log level: 32
Command line:
ffmpeg -hide_banner -nostdin -r 24000/1001 -i "F:\\Convert\\files\\[DC] Make Heroine ga Oosugiru - 07_Telegram_HEVC(151).mkv" -r 24000/1001 -i "F:\\Convert\\files\\[DC] Make Heroine ga Oosugiru - 07_Telegram.mp4" -lavfi "[0:v]settb=AVTB,setpts=PTS-STARTPTS,format=pix_fmts=yuv420p10le,fps=24000/1001,scale=1920:1080:flags=lanczos:param0=3:out_range=limited:out_color_matrix=bt709:out_chroma_loc=left,setsar=1/1,setdar=(1920/1080)*(1/1),colorspace=format=yuv420p10:range=tv:primaries=bt709:trc=bt709:space=bt709:fast=0[main];[1:v]settb=AVTB,setpts=PTS-STARTPTS,format=pix_fmts=yuv420p,fps=24000/1001,scale=1920:1080:flags=lanczos:param0=3:out_range=limited:out_color_matrix=bt709:out_chroma_loc=left,setsar=1.000,setdar=1.778,colorspace=format=yuv420p:range=tv:primaries=bt709:trc=bt709:space=bt709:fast=0[ref];[main][ref]ssim=eof_action=endall:stats_file='C\\:/Dev/OSPanel/domains/Java-AT/modules/ffmpeg/FFMetrics/logs/ssim_logfile-6.txt'" -f null -
Input #0, matroska,webm, from 'F:\Convert\files\[DC] Make Heroine ga Oosugiru - 07_Telegram_HEVC(151).mkv':
  Metadata:
    COMPATIBLE_BRANDS: isomiso2avc1mp41
    MAJOR_BRAND     : isom
    MINOR_VERSION   : 512
    ENCODER         : Lavf61.7.100
  Duration: 00:24:06.79, start: -0.021000, bitrate: 977 kb/s
  Stream #0:0: Video: hevc (Main 10), yuv420p10le(tv, bt709, progressive), 1920x1080 [SAR 1:1 DAR 16:9], 23.98 fps, 23.98 tbr, 1k tbn (default)
      Metadata:
        HANDLER_NAME    : VideoHandler
        VENDOR_ID       : [0][0][0][0]
        ENCODER         : Lavc61.19.100 libx265
        BPS             : 780218
        DURATION        : 00:24:06.569708333
        NUMBER_OF_FRAMES: 34683
        NUMBER_OF_BYTES : 141079904
        _STATISTICS_WRITING_APP: mkvpropedit v94.0 ('Initiate') 64-bit
        _STATISTICS_WRITING_DATE_UTC: 2026-01-17 16:22:36
        _STATISTICS_TAGS: BPS DURATION NUMBER_OF_FRAMES NUMBER_OF_BYTES
  Stream #0:1: Audio: aac (LC), 48000 Hz, stereo, fltp (default)
      Metadata:
        HANDLER_NAME    : SoundHandler
        VENDOR_ID       : [0][0][0][0]
        ENCODER         : Lavc61.19.100 aac
        BPS             : 193194
        DURATION        : 00:24:06.784000000
        NUMBER_OF_FRAMES: 67819
        NUMBER_OF_BYTES : 34938755
        _STATISTICS_WRITING_APP: mkvpropedit v94.0 ('Initiate') 64-bit
        _STATISTICS_WRITING_DATE_UTC: 2026-01-17 16:22:36
        _STATISTICS_TAGS: BPS DURATION NUMBER_OF_FRAMES NUMBER_OF_BYTES
Input #1, mov,mp4,m4a,3gp,3g2,mj2, from 'F:\Convert\files\[DC] Make Heroine ga Oosugiru - 07_Telegram.mp4':
  Metadata:
    major_brand     : isom
    minor_version   : 512
    compatible_brands: isomiso2avc1mp41
    encoder         : Lavf60.16.100
  Duration: 00:24:06.74, start: 0.000000, bitrate: 3764 kb/s
  Stream #1:0[0x1](und): Video: h264 (High) (avc1 / 0x31637661), yuv420p(tv, bt709, progressive), 1920x1080 [SAR 1:1 DAR 16:9], 3616 kb/s, 23.98 fps, 23.98 tbr, 24k tbn (default)
      Metadata:
        handler_name    : VideoHandler
        vendor_id       : [0][0][0][0]
        encoder         : Lavc60.31.102 h264_qsv
  Stream #1:1[0x2](und): Audio: aac (HE-AACv2) (mp4a / 0x6134706D), 48000 Hz, stereo, fltp, 144 kb/s (default)
      Metadata:
        handler_name    : SoundHandler
        vendor_id       : [0][0][0][0]
Stream mapping:
  Stream #0:0 (hevc) -> settb:default
  Stream #1:0 (h264) -> settb:default
  ssim:default -> Stream #0:0 (wrapped_avframe)
  Stream #0:1 -> #0:1 (aac (native) -> pcm_s16le (native))
Output #0, null, to 'pipe:':
  Metadata:
    COMPATIBLE_BRANDS: isomiso2avc1mp41
    MAJOR_BRAND     : isom
    MINOR_VERSION   : 512
    encoder         : Lavf61.7.100
  Stream #0:0: Video: wrapped_avframe, yuv420p10le(tv, bt709, progressive), 1920x1080 [SAR 1:1 DAR 16:9], q=2-31, 200 kb/s, 23.98 fps, 23.98 tbn
      Metadata:
        encoder         : Lavc61.19.100 wrapped_avframe
  Stream #0:1: Audio: pcm_s16le, 48000 Hz, stereo, s16, 1536 kb/s (default)
      Metadata:
        HANDLER_NAME    : SoundHandler
        VENDOR_ID       : [0][0][0][0]
        _STATISTICS_TAGS: BPS DURATION NUMBER_OF_FRAMES NUMBER_OF_BYTES
        BPS             : 193194
        DURATION        : 00:24:06.784000000
        NUMBER_OF_FRAMES: 67819
        NUMBER_OF_BYTES : 34938755
        _STATISTICS_WRITING_APP: mkvpropedit v94.0 ('Initiate') 64-bit
        _STATISTICS_WRITING_DATE_UTC: 2026-01-17 16:22:36
        encoder         : Lavc61.19.100 pcm_s16le
frame=  128 fps=0.0 q=-0.0 size=N/A time=00:00:05.33 bitrate=N/A speed=10.4x    frame=  314 fps=306 q=-0.0 size=N/A time=00:00:13.09 bitrate=N/A speed=12.8x    frame=  522 fps=336 q=-0.0 size=N/A time=00:00:21.77 bitrate=N/A speed=  14x    frame=  726 fps=352 q=-0.0 size=N/A time=00:00:30.28 bitrate=N/A speed=14.7x    frame=  900 fps=349 q=-0.0 size=N/A time=00:00:37.53 bitrate=N/A speed=14.6x    frame= 1052 fps=341 q=-0.0 size=N/A time=00:00:43.87 bitrate=N/A speed=14.2x    frame= 1219 fps=337 q=-0.0 size=N/A time=00:00:50.84 bitrate=N/A speed=14.1x    frame= 1395 fps=338 q=-0.0 size=N/A time=00:00:58.18 bitrate=N/A speed=14.1x    frame= 1550 fps=334 q=-0.0 size=N/A time=00:01:04.64 bitrate=N/A speed=13.9x    frame= 1711 fps=332 q=-0.0 size=N/A time=00:01:11.36 bitrate=N/A speed=13.9x    frame= 1890 fps=333 q=-0.0 size=N/A time=00:01:18.82 bitrate=N/A speed=13.9x    frame= 2051 fps=331 q=-0.0 size=N/A time=00:01:25.54 bitrate=N/A speed=13.8x    frame= 2167 fps=323 q=-0.0 size=N/A time=00:01:30.38 bitrate=N/A speed=13.5x    frame= 2328 fps=323 q=-0.0 size=N/A time=00:01:37.09 bitrate=N/A speed=13.5x    frame= 2476 fps=320 q=-0.0 size=N/A time=00:01:43.26 bitrate=N/A speed=13.3x    frame= 2622 fps=318 q=-0.0 size=N/A time=00:01:49.35 bitrate=N/A speed=13.2x    frame= 2805 fps=320 q=-0.0 size=N/A time=00:01:56.99 bitrate=N/A speed=13.3x    frame= 2979 fps=321 q=-0.0 size=N/A time=00:02:04.24 bitrate=N/A speed=13.4x    frame= 3185 fps=325 q=-0.0 size=N/A time=00:02:12.84 bitrate=N/A speed=13.6x    frame= 3380 fps=328 q=-0.0 size=N/A time=00:02:20.97 bitrate=N/A speed=13.7x    frame= 3575 fps=330 q=-0.0 size=N/A time=00:02:29.10 bitrate=N/A speed=13.8x    frame= 3769 fps=332 q=-0.0 size=N/A time=00:02:37.19 bitrate=N/A speed=13.9x    frame= 3960 fps=334 q=-0.0 size=N/A time=00:02:45.16 bitrate=N/A speed=13.9x    frame= 4152 fps=335 q=-0.0 size=N/A time=00:02:53.17 bitrate=N/A speed=  14x    frame= 4343 fps=337 q=-0.0 size=N/A time=00:03:01.13 bitrate=N/A speed=14.1x    frame= 4537 fps=339 q=-0.0 size=N/A time=00:03:09.23 bitrate=N/A speed=14.1x    frame= 4727 fps=340 q=-0.0 size=N/A time=00:03:17.15 bitrate=N/A speed=14.2x    frame= 4928 fps=341 q=-0.0 size=N/A time=00:03:25.53 bitrate=N/A speed=14.2x    frame= 5120 fps=342 q=-0.0 size=N/A time=00:03:33.54 bitrate=N/A speed=14.3x    frame= 5311 fps=343 q=-0.0 size=N/A time=00:03:41.51 bitrate=N/A speed=14.3x    frame= 5513 fps=345 q=-0.0 size=N/A time=00:03:49.93 bitrate=N/A speed=14.4x    frame= 5709 fps=346 q=-0.0 size=N/A time=00:03:58.11 bitrate=N/A speed=14.4x    frame= 5892 fps=346 q=-0.0 size=N/A time=00:04:05.74 bitrate=N/A speed=14.4x    frame= 6087 fps=347 q=-0.0 size=N/A time=00:04:13.87 bitrate=N/A speed=14.5x    frame= 6273 fps=348 q=-0.0 size=N/A time=00:04:21.63 bitrate=N/A speed=14.5x    frame= 6469 fps=348 q=-0.0 size=N/A time=00:04:29.81 bitrate=N/A speed=14.5x    frame= 6669 fps=350 q=-0.0 size=N/A time=00:04:38.15 bitrate=N/A speed=14.6x    frame= 6863 fps=350 q=-0.0 size=N/A time=00:04:46.24 bitrate=N/A speed=14.6x    frame= 7051 fps=351 q=-0.0 size=N/A time=00:04:54.08 bitrate=N/A speed=14.6x    frame= 7237 fps=351 q=-0.0 size=N/A time=00:05:01.84 bitrate=N/A speed=14.6x    frame= 7434 fps=352 q=-0.0 size=N/A time=00:05:10.05 bitrate=N/A speed=14.7x    frame= 7625 fps=352 q=-0.0 size=N/A time=00:05:18.02 bitrate=N/A speed=14.7x    frame= 7806 fps=352 q=-0.0 size=N/A time=00:05:25.57 bitrate=N/A speed=14.7x    frame= 7996 fps=352 q=-0.0 size=N/A time=00:05:33.49 bitrate=N/A speed=14.7x    frame= 8192 fps=353 q=-0.0 size=N/A time=00:05:41.67 bitrate=N/A speed=14.7x    frame= 8388 fps=354 q=-0.0 size=N/A time=00:05:49.84 bitrate=N/A speed=14.7x    frame= 8581 fps=354 q=-0.0 size=N/A time=00:05:57.89 bitrate=N/A speed=14.8x    frame= 8770 fps=354 q=-0.0 size=N/A time=00:06:05.78 bitrate=N/A speed=14.8x    frame= 8974 fps=355 q=-0.0 size=N/A time=00:06:14.29 bitrate=N/A speed=14.8x    frame= 9173 fps=356 q=-0.0 size=N/A time=00:06:22.59 bitrate=N/A speed=14.8x    frame= 9358 fps=356 q=-0.0 size=N/A time=00:06:30.30 bitrate=N/A speed=14.8x    frame= 9546 fps=356 q=-0.0 size=N/A time=00:06:38.14 bitrate=N/A speed=14.8x    frame= 9744 fps=356 q=-0.0 size=N/A time=00:06:46.40 bitrate=N/A speed=14.9x    frame= 9941 fps=357 q=-0.0 size=N/A time=00:06:54.62 bitrate=N/A speed=14.9x    frame=10128 fps=357 q=-0.0 size=N/A time=00:07:02.42 bitrate=N/A speed=14.9x    frame=10321 fps=357 q=-0.0 size=N/A time=00:07:10.47 bitrate=N/A speed=14.9x    frame=10521 fps=358 q=-0.0 size=N/A time=00:07:18.81 bitrate=N/A speed=14.9x    frame=10710 fps=358 q=-0.0 size=N/A time=00:07:26.69 bitrate=N/A speed=14.9x    frame=10901 fps=358 q=-0.0 size=N/A time=00:07:34.66 bitrate=N/A speed=14.9x    frame=11104 fps=359 q=-0.0 size=N/A time=00:07:43.12 bitrate=N/A speed=  15x    frame=11287 fps=359 q=-0.0 size=N/A time=00:07:50.76 bitrate=N/A speed=  15x    frame=11480 fps=359 q=-0.0 size=N/A time=00:07:58.81 bitrate=N/A speed=  15x    frame=11677 fps=359 q=-0.0 size=N/A time=00:08:07.02 bitrate=N/A speed=  15x    frame=11872 fps=359 q=-0.0 size=N/A time=00:08:15.16 bitrate=N/A speed=  15x    frame=12065 fps=360 q=-0.0 size=N/A time=00:08:23.21 bitrate=N/A speed=  15x    frame=12259 fps=360 q=-0.0 size=N/A time=00:08:31.30 bitrate=N/A speed=  15x    frame=12461 fps=360 q=-0.0 size=N/A time=00:08:39.72 bitrate=N/A speed=  15x    frame=12653 fps=360 q=-0.0 size=N/A time=00:08:47.73 bitrate=N/A speed=  15x    frame=12848 fps=361 q=-0.0 size=N/A time=00:08:55.86 bitrate=N/A speed=  15x    frame=13044 fps=361 q=-0.0 size=N/A time=00:09:04.04 bitrate=N/A speed=15.1x    frame=13237 fps=361 q=-0.0 size=N/A time=00:09:12.09 bitrate=N/A speed=15.1x    frame=13424 fps=361 q=-0.0 size=N/A time=00:09:19.89 bitrate=N/A speed=15.1x    frame=13612 fps=361 q=-0.0 size=N/A time=00:09:27.73 bitrate=N/A speed=15.1x    frame=13807 fps=361 q=-0.0 size=N/A time=00:09:35.86 bitrate=N/A speed=15.1x    frame=14002 fps=362 q=-0.0 size=N/A time=00:09:44.00 bitrate=N/A speed=15.1x    frame=14173 fps=361 q=-0.0 size=N/A time=00:09:51.13 bitrate=N/A speed=15.1x    frame=14364 fps=361 q=-0.0 size=N/A time=00:09:59.09 bitrate=N/A speed=15.1x    frame=14554 fps=361 q=-0.0 size=N/A time=00:10:07.02 bitrate=N/A speed=15.1x    frame=14743 fps=362 q=-0.0 size=N/A time=00:10:14.90 bitrate=N/A speed=15.1x    frame=14930 fps=362 q=-0.0 size=N/A time=00:10:22.70 bitrate=N/A speed=15.1x    frame=15113 fps=362 q=-0.0 size=N/A time=00:10:30.33 bitrate=N/A speed=15.1x    frame=15299 fps=361 q=-0.0 size=N/A time=00:10:38.09 bitrate=N/A speed=15.1x    frame=15484 fps=361 q=-0.0 size=N/A time=00:10:45.81 bitrate=N/A speed=15.1x    frame=15670 fps=361 q=-0.0 size=N/A time=00:10:53.56 bitrate=N/A speed=15.1x    frame=15864 fps=362 q=-0.0 size=N/A time=00:11:01.66 bitrate=N/A speed=15.1x    frame=16060 fps=362 q=-0.0 size=N/A time=00:11:09.83 bitrate=N/A speed=15.1x    frame=16254 fps=362 q=-0.0 size=N/A time=00:11:17.92 bitrate=N/A speed=15.1x    frame=16445 fps=362 q=-0.0 size=N/A time=00:11:25.89 bitrate=N/A speed=15.1x    frame=16650 fps=362 q=-0.0 size=N/A time=00:11:34.44 bitrate=N/A speed=15.1x    frame=16845 fps=363 q=-0.0 size=N/A time=00:11:42.57 bitrate=N/A speed=15.1x    frame=17038 fps=363 q=-0.0 size=N/A time=00:11:50.62 bitrate=N/A speed=15.1x    frame=17230 fps=363 q=-0.0 size=N/A time=00:11:58.63 bitrate=N/A speed=15.1x    frame=17406 fps=363 q=-0.0 size=N/A time=00:12:05.97 bitrate=N/A speed=15.1x    frame=17596 fps=363 q=-0.0 size=N/A time=00:12:13.89 bitrate=N/A speed=15.1x    frame=17784 fps=363 q=-0.0 size=N/A time=00:12:21.74 bitrate=N/A speed=15.1x    frame=17986 fps=363 q=-0.0 size=N/A time=00:12:30.16 bitrate=N/A speed=15.1x    frame=18176 fps=363 q=-0.0 size=N/A time=00:12:38.09 bitrate=N/A speed=15.1x    frame=18365 fps=363 q=-0.0 size=N/A time=00:12:45.97 bitrate=N/A speed=15.1x    frame=18577 fps=364 q=-0.0 size=N/A time=00:12:54.81 bitrate=N/A speed=15.2x    frame=18776 fps=364 q=-0.0 size=N/A time=00:13:03.11 bitrate=N/A speed=15.2x    frame=18982 fps=364 q=-0.0 size=N/A time=00:13:11.70 bitrate=N/A speed=15.2x    frame=19185 fps=365 q=-0.0 size=N/A time=00:13:20.17 bitrate=N/A speed=15.2x    frame=19392 fps=365 q=-0.0 size=N/A time=00:13:28.80 bitrate=N/A speed=15.2x    frame=19590 fps=365 q=-0.0 size=N/A time=00:13:37.06 bitrate=N/A speed=15.2x    frame=19790 fps=365 q=-0.0 size=N/A time=00:13:45.40 bitrate=N/A speed=15.2x    frame=19997 fps=366 q=-0.0 size=N/A time=00:13:54.04 bitrate=N/A speed=15.2x    frame=20207 fps=366 q=-0.0 size=N/A time=00:14:02.80 bitrate=N/A speed=15.3x    frame=20399 fps=366 q=-0.0 size=N/A time=00:14:10.80 bitrate=N/A speed=15.3x    frame=20590 fps=366 q=-0.0 size=N/A time=00:14:18.77 bitrate=N/A speed=15.3x    frame=20785 fps=366 q=-0.0 size=N/A time=00:14:26.90 bitrate=N/A speed=15.3x    frame=20989 fps=366 q=-0.0 size=N/A time=00:14:35.41 bitrate=N/A speed=15.3x    frame=21186 fps=367 q=-0.0 size=N/A time=00:14:43.63 bitrate=N/A speed=15.3x    frame=21391 fps=367 q=-0.0 size=N/A time=00:14:52.18 bitrate=N/A speed=15.3x    frame=21597 fps=367 q=-0.0 size=N/A time=00:15:00.77 bitrate=N/A speed=15.3x    frame=21800 fps=367 q=-0.0 size=N/A time=00:15:09.24 bitrate=N/A speed=15.3x    frame=22003 fps=368 q=-0.0 size=N/A time=00:15:17.70 bitrate=N/A speed=15.3x    frame=22207 fps=368 q=-0.0 size=N/A time=00:15:26.21 bitrate=N/A speed=15.3x    frame=22406 fps=368 q=-0.0 size=N/A time=00:15:34.51 bitrate=N/A speed=15.3x    frame=22605 fps=368 q=-0.0 size=N/A time=00:15:42.81 bitrate=N/A speed=15.4x    frame=22791 fps=368 q=-0.0 size=N/A time=00:15:50.57 bitrate=N/A speed=15.4x    frame=22964 fps=368 q=-0.0 size=N/A time=00:15:57.79 bitrate=N/A speed=15.3x    frame=23164 fps=368 q=-0.0 size=N/A time=00:16:06.13 bitrate=N/A speed=15.3x    frame=23358 fps=368 q=-0.0 size=N/A time=00:16:14.22 bitrate=N/A speed=15.3x    frame=23551 fps=368 q=-0.0 size=N/A time=00:16:22.27 bitrate=N/A speed=15.4x    frame=23762 fps=368 q=-0.0 size=N/A time=00:16:31.07 bitrate=N/A speed=15.4x    frame=23956 fps=368 q=-0.0 size=N/A time=00:16:39.16 bitrate=N/A speed=15.4x    frame=24146 fps=368 q=-0.0 size=N/A time=00:16:47.08 bitrate=N/A speed=15.4x    frame=24342 fps=369 q=-0.0 size=N/A time=00:16:55.26 bitrate=N/A speed=15.4x    frame=24543 fps=369 q=-0.0 size=N/A time=00:17:03.64 bitrate=N/A speed=15.4x    frame=24739 fps=369 q=-0.0 size=N/A time=00:17:11.82 bitrate=N/A speed=15.4x    frame=24931 fps=369 q=-0.0 size=N/A time=00:17:19.83 bitrate=N/A speed=15.4x    frame=25129 fps=369 q=-0.0 size=N/A time=00:17:28.08 bitrate=N/A speed=15.4x    frame=25332 fps=369 q=-0.0 size=N/A time=00:17:36.55 bitrate=N/A speed=15.4x    frame=25522 fps=369 q=-0.0 size=N/A time=00:17:44.48 bitrate=N/A speed=15.4x    frame=25714 fps=369 q=-0.0 size=N/A time=00:17:52.48 bitrate=N/A speed=15.4x    frame=25911 fps=369 q=-0.0 size=N/A time=00:18:00.70 bitrate=N/A speed=15.4x    frame=26106 fps=369 q=-0.0 size=N/A time=00:18:08.83 bitrate=N/A speed=15.4x    frame=26303 fps=369 q=-0.0 size=N/A time=00:18:17.05 bitrate=N/A speed=15.4x    frame=26499 fps=369 q=-0.0 size=N/A time=00:18:25.22 bitrate=N/A speed=15.4x    frame=26696 fps=370 q=-0.0 size=N/A time=00:18:33.44 bitrate=N/A speed=15.4x    frame=26898 fps=370 q=-0.0 size=N/A time=00:18:41.87 bitrate=N/A speed=15.4x    frame=27072 fps=369 q=-0.0 size=N/A time=00:18:49.12 bitrate=N/A speed=15.4x    frame=27258 fps=369 q=-0.0 size=N/A time=00:18:56.88 bitrate=N/A speed=15.4x    frame=27451 fps=369 q=-0.0 size=N/A time=00:19:04.93 bitrate=N/A speed=15.4x    frame=27639 fps=369 q=-0.0 size=N/A time=00:19:12.77 bitrate=N/A speed=15.4x    frame=27830 fps=369 q=-0.0 size=N/A time=00:19:20.74 bitrate=N/A speed=15.4x    frame=28023 fps=370 q=-0.0 size=N/A time=00:19:28.79 bitrate=N/A speed=15.4x    frame=28216 fps=369 q=-0.0 size=N/A time=00:19:36.84 bitrate=N/A speed=15.4x    frame=28404 fps=369 q=-0.0 size=N/A time=00:19:44.68 bitrate=N/A speed=15.4x    frame=28596 fps=370 q=-0.0 size=N/A time=00:19:52.69 bitrate=N/A speed=15.4x    frame=28774 fps=369 q=-0.0 size=N/A time=00:20:00.11 bitrate=N/A speed=15.4x    frame=28947 fps=369 q=-0.0 size=N/A time=00:20:07.33 bitrate=N/A speed=15.4x    frame=29128 fps=369 q=-0.0 size=N/A time=00:20:14.88 bitrate=N/A speed=15.4x    frame=29286 fps=369 q=-0.0 size=N/A time=00:20:21.47 bitrate=N/A speed=15.4x    frame=29458 fps=368 q=-0.0 size=N/A time=00:20:28.64 bitrate=N/A speed=15.4x    frame=29641 fps=368 q=-0.0 size=N/A time=00:20:36.27 bitrate=N/A speed=15.4x    frame=29810 fps=368 q=-0.0 size=N/A time=00:20:43.32 bitrate=N/A speed=15.3x    frame=29984 fps=368 q=-0.0 size=N/A time=00:20:50.58 bitrate=N/A speed=15.3x    frame=30159 fps=368 q=-0.0 size=N/A time=00:20:57.88 bitrate=N/A speed=15.3x    frame=30344 fps=368 q=-0.0 size=N/A time=00:21:05.59 bitrate=N/A speed=15.3x    frame=30540 fps=368 q=-0.0 size=N/A time=00:21:13.77 bitrate=N/A speed=15.3x    frame=30735 fps=368 q=-0.0 size=N/A time=00:21:21.90 bitrate=N/A speed=15.3x    frame=30941 fps=368 q=-0.0 size=N/A time=00:21:30.49 bitrate=N/A speed=15.3x    frame=31125 fps=368 q=-0.0 size=N/A time=00:21:38.17 bitrate=N/A speed=15.3x    frame=31313 fps=368 q=-0.0 size=N/A time=00:21:46.01 bitrate=N/A speed=15.3x    frame=31498 fps=368 q=-0.0 size=N/A time=00:21:53.72 bitrate=N/A speed=15.3x    frame=31695 fps=368 q=-0.0 size=N/A time=00:22:01.94 bitrate=N/A speed=15.3x    frame=31878 fps=368 q=-0.0 size=N/A time=00:22:09.57 bitrate=N/A speed=15.3x    frame=32060 fps=368 q=-0.0 size=N/A time=00:22:17.16 bitrate=N/A speed=15.3x    frame=32256 fps=368 q=-0.0 size=N/A time=00:22:25.34 bitrate=N/A speed=15.3x    frame=32457 fps=368 q=-0.0 size=N/A time=00:22:33.72 bitrate=N/A speed=15.3x    frame=32641 fps=368 q=-0.0 size=N/A time=00:22:41.40 bitrate=N/A speed=15.3x    frame=32789 fps=367 q=-0.0 size=N/A time=00:22:47.57 bitrate=N/A speed=15.3x    frame=32969 fps=367 q=-0.0 size=N/A time=00:22:55.08 bitrate=N/A speed=15.3x    frame=33151 fps=367 q=-0.0 size=N/A time=00:23:02.67 bitrate=N/A speed=15.3x    frame=33339 fps=367 q=-0.0 size=N/A time=00:23:10.51 bitrate=N/A speed=15.3x    frame=33502 fps=367 q=-0.0 size=N/A time=00:23:17.31 bitrate=N/A speed=15.3x    frame=33658 fps=367 q=-0.0 size=N/A time=00:23:23.81 bitrate=N/A speed=15.3x    frame=33802 fps=366 q=-0.0 size=N/A time=00:23:29.82 bitrate=N/A speed=15.3x    frame=33937 fps=365 q=-0.0 size=N/A time=00:23:35.45 bitrate=N/A speed=15.2x    frame=34108 fps=365 q=-0.0 size=N/A time=00:23:42.58 bitrate=N/A speed=15.2x    frame=34267 fps=365 q=-0.0 size=N/A time=00:23:49.21 bitrate=N/A speed=15.2x    frame=34402 fps=364 q=-0.0 size=N/A time=00:23:54.85 bitrate=N/A speed=15.2x    frame=34574 fps=364 q=-0.0 size=N/A time=00:24:02.02 bitrate=N/A speed=15.2x    [Parsed_ssim_16 @ 000001af55b1ac80] SSIM Y:0.994184 (22.354061) U:0.994001 (22.218982) V:0.993606 (21.941994) All:0.994057 (22.260175)
[out#0/null @ 000001af48643a00] video:14903KiB audio:271276KiB subtitle:0KiB other streams:0KiB global headers:0KiB muxing overhead: unknown
frame=34683 fps=364 q=-0.0 Lsize=N/A time=00:24:06.57 bitrate=N/A speed=15.2x    
